# Blender v2.79 (sub 0) OBJ File: ''
# www.blender.org
mtllib arrow.mtl
o Cube_Cube.000
v 1.069252 2.627927 -4.541273
v -0.632913 1.000004 -4.541273
v 0.632913 1.000004 -4.541273
v 0.632913 1.000004 -4.541273
v 1.069252 -2.627919 -4.541274
v 1.069252 2.627927 -4.541273
v -0.632913 0.999999 0.000000
v 0.632913 -1.000001 -0.000000
v 0.632913 0.999999 0.000000
v -1.069252 -2.627919 -4.541274
v 1.069252 0.000007 -7.482975
v 1.069252 -2.627919 -4.541274
v -0.632913 1.000004 -4.541273
v -0.632913 -1.000001 -0.000000
v -0.632913 0.999999 0.000000
v 0.632913 0.999999 0.000000
v 0.632913 -0.999996 -4.541273
v 0.632913 1.000004 -4.541273
v 1.069252 2.627927 -4.541273
v 1.069252 -2.627919 -4.541274
v 1.069252 0.000007 -7.482975
v -0.632913 0.999999 0.000000
v 0.632913 1.000004 -4.541273
v -0.632913 1.000004 -4.541273
v -1.069252 -2.627919 -4.541274
v 0.632913 -0.999996 -4.541273
v -0.632913 -0.999996 -4.541273
v -0.632913 -0.999996 -4.541273
v -1.069252 2.627927 -4.541273
v -1.069252 -2.627919 -4.541274
v 1.069252 2.627927 -4.541273
v -1.069252 0.000007 -7.482975
v -1.069252 2.627927 -4.541273
v -1.069252 -2.627919 -4.541274
v -1.069252 2.627927 -4.541273
v -1.069252 0.000007 -7.482975
v 0.632913 1.000004 -4.541273
v 0.632913 -0.999996 -4.541273
v 1.069252 -2.627919 -4.541274
v -0.632913 -0.999996 -4.541273
v -0.632913 1.000004 -4.541273
v -1.069252 2.627927 -4.541273
v 0.632913 -1.000001 -0.000000
v -0.632913 -0.999996 -4.541273
v 0.632913 -0.999996 -4.541273
v 1.069252 2.627927 -4.541273
v -1.069252 2.627927 -4.541273
v -0.632913 1.000004 -4.541273
v -0.632913 0.999999 0.000000
v -0.632913 -1.000001 -0.000000
v 0.632913 -1.000001 -0.000000
v -1.069252 -2.627919 -4.541274
v -1.069252 0.000007 -7.482975
v 1.069252 0.000007 -7.482975
v -0.632913 1.000004 -4.541273
v -0.632913 -0.999996 -4.541273
v -0.632913 -1.000001 -0.000000
v 0.632913 0.999999 0.000000
v 0.632913 -1.000001 -0.000000
v 0.632913 -0.999996 -4.541273
v -0.632913 0.999999 0.000000
v 0.632913 0.999999 0.000000
v 0.632913 1.000004 -4.541273
v -1.069252 -2.627919 -4.541274
v 1.069252 -2.627919 -4.541274
v 0.632913 -0.999996 -4.541273
v 1.069252 2.627927 -4.541273
v 1.069252 0.000007 -7.482975
v -1.069252 0.000007 -7.482975
v 0.632913 -1.000001 -0.000000
v -0.632913 -1.000001 -0.000000
v -0.632913 -0.999996 -4.541273
vt 0.096282 0.073315
vt 0.019716 0.000089
vt 0.076655 0.000089
vt 0.259648 0.152038
vt 0.096460 0.132411
vt 0.332875 0.132411
vt 0.019716 0.795639
vt 0.076655 0.705676
vt 0.076654 0.795639
vt 0.000089 0.428178
vt 0.096282 0.250746
vt 0.096282 0.428178
vt 0.406279 0.152038
vt 0.496241 0.356310
vt 0.406279 0.356310
vt 0.259648 0.356310
vt 0.169686 0.152038
vt 0.259648 0.152038
vt 0.332875 0.132411
vt 0.096460 0.132411
vt 0.214667 0.000089
vt 0.019716 0.795639
vt 0.076654 0.999911
vt 0.019716 0.999911
vt 0.000089 0.428178
vt 0.076655 0.501404
vt 0.019716 0.501404
vt 0.496241 0.152038
vt 0.333053 0.132411
vt 0.569467 0.132411
vt 0.096282 0.073315
vt 0.000089 0.250746
vt 0.000089 0.073315
vt 0.569467 0.132411
vt 0.333053 0.132411
vt 0.451260 0.000089
vt 0.259648 0.152038
vt 0.169686 0.152038
vt 0.096460 0.132411
vt 0.496241 0.152038
vt 0.406279 0.152038
vt 0.333053 0.132411
vt 0.076655 0.705676
vt 0.019716 0.501404
vt 0.076655 0.501404
vt 0.096282 0.073315
vt 0.000089 0.073315
vt 0.019716 0.000089
vt 0.019716 0.795639
vt 0.019716 0.705676
vt 0.076655 0.705676
vt 0.000089 0.428178
vt 0.000089 0.250746
vt 0.096282 0.250746
vt 0.406279 0.152038
vt 0.496241 0.152038
vt 0.496241 0.356310
vt 0.259648 0.356310
vt 0.169686 0.356310
vt 0.169686 0.152038
vt 0.019716 0.795639
vt 0.076654 0.795639
vt 0.076654 0.999911
vt 0.000089 0.428178
vt 0.096282 0.428178
vt 0.076655 0.501404
vt 0.096282 0.073315
vt 0.096282 0.250746
vt 0.000089 0.250746
vt 0.076655 0.705676
vt 0.019716 0.705676
vt 0.019716 0.501404
vn 0.0000 -0.0000 1.0000
vn 0.0000 -0.7458 -0.6662
vn -1.0000 0.0000 0.0000
vn 1.0000 0.0000 0.0000
vn 0.0000 1.0000 0.0000
vn 0.0000 0.7458 -0.6662
vn 0.0000 -1.0000 -0.0000
usemtl Material.002
s 1
f 1/1/1 2/2/1 3/3/1
f 4/4/1 5/5/1 6/6/1
f 7/7/1 8/8/1 9/9/1
f 10/10/2 11/11/2 12/12/2
f 13/13/3 14/14/3 15/15/3
f 16/16/4 17/17/4 18/18/4
f 19/19/4 20/20/4 21/21/4
f 22/22/5 23/23/5 24/24/5
f 25/25/1 26/26/1 27/27/1
f 28/28/1 29/29/1 30/30/1
f 31/31/6 32/32/6 33/33/6
f 34/34/3 35/35/3 36/36/3
f 37/37/1 38/38/1 39/39/1
f 40/40/1 41/41/1 42/42/1
f 43/43/7 44/44/7 45/45/7
f 46/46/1 47/47/1 48/48/1
f 49/49/1 50/50/1 51/51/1
f 52/52/2 53/53/2 54/54/2
f 55/55/3 56/56/3 57/57/3
f 58/58/4 59/59/4 60/60/4
f 61/61/5 62/62/5 63/63/5
f 64/64/1 65/65/1 66/66/1
f 67/67/6 68/68/6 69/69/6
f 70/70/7 71/71/7 72/72/7
