# Blender v2.79 (sub 0) OBJ File: 'room.blend'
# www.blender.org
mtllib room.mtl
o Plane
v -17.052105 -0.000000 22.672361
v -17.052105 18.146147 22.672361
v -17.052105 -0.000000 -9.682433
v -17.052105 18.146147 -9.682433
v 17.052103 -0.000000 22.672361
v 17.052103 18.146147 22.672361
v 17.052103 -0.000000 -9.682433
v 17.052103 18.146147 -9.682433
v 17.052103 0.000000 -5.281721
v -17.052105 0.000000 5.281721
v -17.052105 1.784552 -9.682433
v 17.052103 18.146147 -5.281721
v -17.052105 1.784552 22.672361
v 17.052103 1.784552 -9.682433
v 17.052103 18.146147 5.281721
v -17.052105 0.000000 -5.281721
v 17.052103 1.784552 22.672361
v 17.052103 1.784552 -5.281721
v 17.052103 1.784552 5.281721
v 17.052103 0.000000 5.281721
v 17.052103 4.853194 3.521147
v 17.052103 7.184381 1.760574
v 17.052103 7.936954 0.000000
v 17.052103 7.184381 -1.760574
v 17.052103 4.853194 -3.521147
v 17.052103 18.146147 3.521147
v 17.052103 18.146147 1.760574
v 17.052103 18.146147 0.000000
v 17.052103 18.146147 -1.760574
v 17.052103 18.146147 -3.521147
v -17.052105 0.000000 3.521147
v -17.052105 0.000000 1.760574
v -17.052105 0.000000 0.000000
v -17.052105 0.000000 -1.760574
v -17.052105 0.000000 -3.521147
v 17.052103 0.000000 -3.521147
v 17.052103 0.000000 -1.760574
v 17.052103 0.000000 0.000000
v 17.052103 0.000000 1.760574
v 17.052103 0.000000 3.521147
v 17.052103 4.261414 -2.782698
v 17.052103 1.836322 -4.174047
v 17.052103 1.836322 4.174047
v 17.052103 0.426023 4.174047
v 17.052103 0.426023 -4.174047
v 17.052103 0.426023 2.782698
v 17.052103 4.261414 2.782698
v 17.052103 6.103707 1.391349
v 17.052103 6.698453 0.000000
v 17.052103 6.103707 -1.391349
v 17.052103 0.426023 -2.782698
v 17.052103 0.426023 -1.391349
v 17.052103 0.426023 0.000000
v 17.052103 0.426023 1.391349
v 24.192062 4.261414 -2.782698
v 24.192062 1.836322 -4.174047
v 24.192062 1.836322 4.174047
v 24.192062 0.426023 4.174047
v 24.192062 0.426023 -4.174047
v 24.192062 0.426023 2.782698
v 24.192062 4.261414 2.782698
v 24.192062 6.103707 1.391349
v 24.192062 6.698453 0.000000
v 24.192062 6.103707 -1.391349
v 24.192062 0.426023 -2.782698
v 24.192062 0.426023 -1.391349
v 24.192062 0.426023 0.000000
v 24.192062 0.426023 1.391349
v -17.052105 1.784552 -9.682433
v 17.052103 4.853194 -3.521147
v 17.052103 4.853194 -3.521147
v 17.052103 4.853194 -3.521147
v 17.052103 1.784552 -5.281721
v 17.052103 1.784552 -5.281721
v 17.052103 1.784552 -5.281721
v 17.052103 1.784552 -5.281721
v 17.052103 18.146147 5.281721
v 17.052103 18.146147 -5.281721
v 17.052103 18.146147 -9.682433
v -17.052105 0.000000 -5.281721
v -17.052105 -0.000000 -9.682433
v 17.052103 1.784552 22.672361
v 17.052103 0.000000 5.281721
v 17.052103 0.000000 5.281721
v 17.052103 0.000000 5.281721
v 17.052103 0.000000 5.281721
v 17.052103 -0.000000 22.672361
v 17.052103 1.784552 5.281721
v 17.052103 1.784552 5.281721
v 17.052103 1.784552 5.281721
v 17.052103 1.784552 5.281721
v 17.052103 0.000000 -5.281721
v 17.052103 0.000000 -5.281721
v 17.052103 0.000000 -5.281721
v 17.052103 0.000000 -5.281721
v -17.052105 0.000000 5.281721
v 17.052103 18.146147 -3.521147
v 17.052103 1.784552 -9.682433
v 17.052103 1.784552 -9.682433
v 17.052103 1.784552 -9.682433
v 17.052103 -0.000000 -9.682433
v 17.052103 -0.000000 -9.682433
v -17.052105 0.000000 -3.521147
v 17.052103 0.000000 3.521147
v 17.052103 0.000000 3.521147
v 17.052103 0.000000 3.521147
v 17.052103 4.853194 3.521147
v 17.052103 4.853194 3.521147
v 17.052103 4.853194 3.521147
v 17.052103 7.184381 1.760574
v 17.052103 7.184381 1.760574
v 17.052103 7.184381 1.760574
v 17.052103 7.936954 0.000000
v 17.052103 7.936954 0.000000
v 17.052103 7.936954 0.000000
v 17.052103 7.184381 -1.760574
v 17.052103 7.184381 -1.760574
v 17.052103 7.184381 -1.760574
v 17.052103 18.146147 3.521147
v 17.052103 18.146147 1.760574
v 17.052103 18.146147 0.000000
v 17.052103 18.146147 -1.760574
v -17.052105 0.000000 3.521147
v -17.052105 0.000000 1.760574
v -17.052105 0.000000 0.000000
v -17.052105 0.000000 -1.760574
v 17.052103 0.000000 -3.521147
v 17.052103 0.000000 -3.521147
v 17.052103 0.000000 -3.521147
v 17.052103 0.000000 -1.760574
v 17.052103 0.000000 -1.760574
v 17.052103 0.000000 -1.760574
v 17.052103 0.000000 0.000000
v 17.052103 0.000000 0.000000
v 17.052103 0.000000 0.000000
v 17.052103 0.000000 1.760574
v 17.052103 0.000000 1.760574
v 17.052103 0.000000 1.760574
v 17.052103 0.426023 0.000000
v 17.052103 0.426023 0.000000
v 17.052103 0.426023 0.000000
v 17.052103 6.698453 0.000000
v 17.052103 6.698453 0.000000
v 17.052103 6.698453 0.000000
v 17.052103 6.103707 1.391349
v 17.052103 6.103707 1.391349
v 17.052103 6.103707 1.391349
v 17.052103 0.426023 -1.391349
v 17.052103 0.426023 -1.391349
v 17.052103 0.426023 -1.391349
v 17.052103 0.426023 -2.782698
v 17.052103 0.426023 -2.782698
v 17.052103 0.426023 -2.782698
v 17.052103 4.261414 -2.782698
v 17.052103 4.261414 -2.782698
v 17.052103 4.261414 -2.782698
v 17.052103 1.836322 -4.174047
v 17.052103 1.836322 -4.174047
v 17.052103 1.836322 -4.174047
v 17.052103 1.836322 4.174047
v 17.052103 1.836322 4.174047
v 17.052103 1.836322 4.174047
v 17.052103 0.426023 4.174047
v 17.052103 0.426023 4.174047
v 17.052103 0.426023 4.174047
v 17.052103 0.426023 -4.174047
v 17.052103 0.426023 -4.174047
v 17.052103 0.426023 -4.174047
v 17.052103 0.426023 2.782698
v 17.052103 0.426023 2.782698
v 17.052103 0.426023 2.782698
v 17.052103 4.261414 2.782698
v 17.052103 4.261414 2.782698
v 17.052103 4.261414 2.782698
v 17.052103 6.103707 -1.391349
v 17.052103 6.103707 -1.391349
v 17.052103 6.103707 -1.391349
v 17.052103 0.426023 1.391349
v 17.052103 0.426023 1.391349
v 17.052103 0.426023 1.391349
v 24.192062 0.426023 1.391349
v 24.192062 0.426023 1.391349
v 24.192062 0.426023 1.391349
v 24.192062 4.261414 2.782698
v 24.192062 4.261414 2.782698
v 24.192062 4.261414 2.782698
v 24.192062 1.836322 4.174047
v 24.192062 1.836322 4.174047
v 24.192062 0.426023 0.000000
v 24.192062 0.426023 0.000000
v 24.192062 0.426023 0.000000
v 24.192062 0.426023 -1.391349
v 24.192062 0.426023 -1.391349
v 24.192062 0.426023 -1.391349
v 24.192062 4.261414 -2.782698
v 24.192062 4.261414 -2.782698
v 24.192062 4.261414 -2.782698
v 24.192062 1.836322 -4.174047
v 24.192062 1.836322 -4.174047
v 24.192062 0.426023 4.174047
v 24.192062 0.426023 4.174047
v 24.192062 0.426023 -4.174047
v 24.192062 0.426023 -4.174047
v 24.192062 0.426023 2.782698
v 24.192062 0.426023 2.782698
v 24.192062 0.426023 2.782698
v 24.192062 6.103707 1.391349
v 24.192062 6.103707 1.391349
v 24.192062 6.103707 1.391349
v 24.192062 6.698453 0.000000
v 24.192062 6.698453 0.000000
v 24.192062 6.698453 0.000000
v 24.192062 6.103707 -1.391349
v 24.192062 6.103707 -1.391349
v 24.192062 6.103707 -1.391349
v 24.192062 0.426023 -2.782698
v 24.192062 0.426023 -2.782698
v 24.192062 0.426023 -2.782698
vt -0.000032 0.998444
vt 0.583204 0.698826
vt 0.583204 0.998444
vt -0.000032 0.576150
vt 0.583204 0.666146
vt -0.000032 0.666147
vt 0.583396 0.360121
vt 0.607573 0.004476
vt 0.607573 0.360121
vt 0.607573 0.360121
vt 0.829239 0.004476
vt 0.829239 0.360121
vt -0.000033 0.360124
vt 0.583204 0.396126
vt -0.000032 0.396128
vt -0.000033 0.004478
vt 0.583204 0.360122
vt -0.000033 0.360124
vt 0.649147 0.396126
vt 0.829239 0.360121
vt 0.829239 0.396126
vt 0.583396 0.666144
vt 0.607573 0.576148
vt 0.607573 0.666144
vt 0.607573 0.666144
vt 0.829239 0.576148
vt 0.829239 0.666144
vt 0.583204 0.698826
vt -0.000032 0.666147
vt 0.583204 0.666146
vt 0.589158 0.553502
vt 0.607563 0.576154
vt 0.583386 0.576154
vt 0.589158 0.439687
vt 0.583386 0.468141
vt 0.583386 0.432137
vt 0.680719 0.504145
vt 0.674136 0.468141
vt 0.690915 0.468141
vt 0.583386 0.468141
vt 0.589158 0.496595
vt 0.583386 0.504146
vt 0.829239 0.576148
vt 0.649147 0.540144
vt 0.829239 0.540144
vt 0.829239 0.540144
vt 0.680730 0.504139
vt 0.829239 0.504139
vt 0.829239 0.504139
vt 0.690925 0.468135
vt 0.829239 0.468135
vt 0.690925 0.468135
vt 0.829239 0.432130
vt 0.829239 0.468135
vt 0.680730 0.432130
vt 0.829239 0.396126
vt 0.829239 0.432130
vt -0.000032 0.540146
vt 0.583204 0.576150
vt -0.000032 0.576150
vt -0.000032 0.504142
vt 0.583204 0.540145
vt -0.000032 0.540146
vt -0.000032 0.468137
vt 0.583204 0.504140
vt -0.000032 0.504142
vt -0.000032 0.432133
vt 0.583204 0.468136
vt -0.000032 0.468137
vt -0.000032 0.396128
vt 0.583204 0.432131
vt -0.000032 0.432133
vt 0.674136 0.468141
vt 0.680719 0.432137
vt 0.690915 0.468141
vt 0.583386 0.504146
vt 0.589158 0.525048
vt 0.583386 0.540150
vt 0.600851 0.811457
vt 0.624309 0.932305
vt 0.600851 0.932305
vt 0.740691 0.811457
vt 0.762599 0.932304
vt 0.740692 0.932304
vt 0.624309 0.811457
vt 0.658290 0.932305
vt 0.624309 0.932305
vt 0.762599 0.811457
vt 0.784507 0.932304
vt 0.762599 0.932304
vt 0.658290 0.811457
vt 0.698899 0.932305
vt 0.658290 0.932305
vt 0.784507 0.811457
vt 0.806415 0.932304
vt 0.784507 0.932304
vt 0.649137 0.540150
vt 0.666078 0.496595
vt 0.680719 0.504145
vt 0.589158 0.411234
vt 0.583386 0.432137
vt 0.583386 0.396132
vt 0.589158 0.382780
vt 0.583386 0.396132
vt 0.583386 0.360128
vt 0.607563 0.360128
vt 0.589158 0.382780
vt 0.583386 0.360128
vt 0.608264 0.553502
vt 0.649137 0.540150
vt 0.607563 0.576154
vt 0.649137 0.396132
vt 0.608264 0.382780
vt 0.607563 0.360128
vt 0.583386 0.540150
vt 0.589158 0.553502
vt 0.583386 0.576154
vt 0.666078 0.439687
vt 0.649137 0.396132
vt 0.680719 0.432137
vt 0.608266 0.553492
vt 0.589160 0.525039
vt 0.641121 0.525039
vt 0.641121 0.411224
vt 0.589160 0.439678
vt 0.589160 0.411224
vt 0.641121 0.525039
vt 0.589160 0.496585
vt 0.666080 0.496585
vt 0.666080 0.496585
vt 0.589160 0.468132
vt 0.674138 0.468132
vt 0.666080 0.439678
vt 0.589160 0.468132
vt 0.589160 0.439678
vt 0.608266 0.382771
vt 0.589160 0.411224
vt 0.589160 0.382771
vt 0.944706 0.811457
vt 0.968164 0.932304
vt 0.944706 0.932304
vt 0.870116 0.811457
vt 0.910725 0.932304
vt 0.870116 0.932304
vt 0.910725 0.811457
vt 0.944706 0.932304
vt 0.910725 0.932304
vt 0.698899 0.811457
vt 0.718784 0.932305
vt 0.698899 0.932305
vt 0.828323 0.811457
vt 0.850231 0.932304
vt 0.828323 0.932304
vt 0.850231 0.811457
vt 0.870116 0.932304
vt 0.850231 0.932304
vt 0.806415 0.811457
vt 0.828323 0.932304
vt 0.806415 0.932304
vt 0.718783 0.811457
vt 0.740692 0.932304
vt 0.718784 0.932305
vt -0.000032 0.698825
vt 0.583204 0.576150
vt 0.583396 0.004476
vt 0.607573 0.004476
vt 0.583204 0.360122
vt 0.583203 0.004476
vt 0.607573 0.360121
vt 0.583396 0.576148
vt 0.607573 0.576148
vt -0.000032 0.698825
vt 0.608264 0.553502
vt 0.589158 0.468141
vt 0.666078 0.496595
vt 0.589158 0.468141
vt 0.607573 0.576148
vt 0.649147 0.540144
vt 0.680730 0.504139
vt 0.680730 0.432130
vt 0.649147 0.396126
vt 0.583204 0.540145
vt 0.583204 0.504140
vt 0.583204 0.468136
vt 0.583204 0.432131
vt 0.583204 0.396126
vt 0.666078 0.439687
vt 0.589158 0.496595
vt 0.624309 0.811457
vt 0.762599 0.811457
vt 0.658290 0.811457
vt 0.784507 0.811457
vt 0.698899 0.811457
vt 0.806415 0.811457
vt 0.641119 0.525048
vt 0.589158 0.439687
vt 0.589158 0.411234
vt 0.608264 0.382780
vt 0.641119 0.525048
vt 0.641119 0.411234
vt 0.589158 0.525048
vt 0.641119 0.411234
vt 0.589160 0.553492
vt 0.666080 0.439678
vt 0.589160 0.525039
vt 0.589160 0.496585
vt 0.674138 0.468132
vt 0.641121 0.411224
vt 0.968164 0.811457
vt 0.910725 0.811457
vt 0.944706 0.811457
vt 0.718783 0.811457
vt 0.850231 0.811457
vt 0.870116 0.811457
vt 0.828323 0.811457
vt 0.740691 0.811457
vn 0.0000 0.0000 1.0000
vn 0.0000 1.0000 -0.0000
vn -1.0000 0.0000 0.0000
vn 0.0000 -0.9195 -0.3931
vn 0.0000 -0.6027 -0.7980
vn 0.0000 -0.4976 -0.8674
vn 0.0000 -0.9195 0.3931
vn 0.0000 -0.4976 0.8674
vn 0.0000 -0.6027 0.7980
vn 0.0000 0.0000 -1.0000
usemtl Material.001
s off
f 4/1/1 98/2/1 8/3/1
f 80/4/2 102/5/2 81/6/2
f 83/7/3 17/8/3 88/9/3
f 89/10/3 6/11/3 77/12/3
f 10/13/2 104/14/2 123/15/2
f 1/16/2 86/17/2 96/18/2
f 107/19/3 15/20/3 119/21/3
f 101/22/3 74/23/3 99/24/3
f 14/25/3 78/26/3 79/27/3
f 100/28/1 3/29/1 7/30/1
f 166/31/3 76/32/3 95/33/3
f 178/34/3 134/35/3 136/36/3
f 116/37/3 142/38/3 114/39/3
f 133/40/3 148/41/3 131/42/3
f 12/43/3 70/44/3 97/45/3
f 30/46/3 117/47/3 29/48/3
f 122/49/3 115/50/3 28/51/3
f 113/52/3 27/53/3 121/54/3
f 110/55/3 26/56/3 120/57/3
f 103/58/2 94/59/2 16/60/2
f 34/61/2 128/62/2 35/63/2
f 33/64/2 132/65/2 126/66/2
f 32/67/2 38/68/2 125/69/2
f 31/70/2 137/71/2 124/72/2
f 143/73/3 112/74/3 23/75/3
f 37/76/3 151/77/3 129/78/3
f 210/79/4 147/80/4 144/81/4
f 205/82/2 179/83/2 170/84/2
f 207/85/5 173/86/5 146/87/5
f 182/88/2 141/89/2 54/90/2
f 185/91/6 161/92/6 172/93/6
f 190/94/2 150/95/2 53/96/2
f 72/97/3 176/98/3 118/99/3
f 171/100/3 39/101/3 106/102/3
f 164/103/3 40/104/3 85/105/3
f 91/106/3 163/107/3 20/108/3
f 157/109/3 25/110/3 18/111/3
f 109/112/3 162/113/3 19/114/3
f 36/115/3 167/116/3 9/117/3
f 48/118/3 21/119/3 22/120/3
f 198/121/3 216/122/3 195/123/3
f 186/124/3 183/125/3 206/126/3
f 196/127/3 193/128/3 214/129/3
f 213/130/3 191/131/3 211/132/3
f 62/133/3 67/134/3 68/135/3
f 188/136/3 204/137/3 200/138/3
f 215/139/7 49/140/7 177/141/7
f 199/142/8 156/143/8 159/144/8
f 55/145/9 50/146/9 41/147/9
f 57/148/10 165/149/10 43/150/10
f 218/151/2 168/152/2 153/153/2
f 59/154/1 42/155/1 45/156/1
f 194/157/2 51/158/2 52/159/2
f 58/160/2 46/161/2 44/162/2
f 4/1/1 69/163/1 98/2/1
f 80/4/2 92/164/2 102/5/2
f 83/7/3 87/165/3 17/8/3
f 89/10/3 82/166/3 6/11/3
f 10/13/2 84/167/2 104/14/2
f 1/16/2 5/168/2 86/17/2
f 107/19/3 90/169/3 15/20/3
f 101/22/3 93/170/3 74/23/3
f 14/25/3 75/171/3 78/26/3
f 100/28/1 11/172/1 3/29/1
f 166/31/3 158/173/3 76/32/3
f 178/34/3 139/174/3 134/35/3
f 116/37/3 175/175/3 142/38/3
f 133/40/3 140/176/3 148/41/3
f 12/43/3 73/177/3 70/44/3
f 30/46/3 71/178/3 117/47/3
f 122/49/3 24/179/3 115/50/3
f 113/52/3 111/180/3 27/53/3
f 110/55/3 108/181/3 26/56/3
f 103/58/2 127/182/2 94/59/2
f 34/61/2 130/183/2 128/62/2
f 33/64/2 135/184/2 132/65/2
f 32/67/2 138/185/2 38/68/2
f 31/70/2 105/186/2 137/71/2
f 143/73/3 145/187/3 112/74/3
f 37/76/3 149/188/3 151/77/3
f 210/79/4 208/189/4 147/80/4
f 205/82/2 181/190/2 179/83/2
f 207/85/5 184/191/5 173/86/5
f 182/88/2 189/192/2 141/89/2
f 185/91/6 187/193/6 161/92/6
f 190/94/2 192/194/2 150/95/2
f 72/97/3 155/195/3 176/98/3
f 171/100/3 180/196/3 39/101/3
f 164/103/3 169/197/3 40/104/3
f 91/106/3 160/198/3 163/107/3
f 157/109/3 154/199/3 25/110/3
f 109/112/3 174/200/3 162/113/3
f 36/115/3 152/201/3 167/116/3
f 48/118/3 47/202/3 21/119/3
f 198/121/3 202/203/3 216/122/3
f 186/124/3 209/204/3 183/125/3
f 196/127/3 217/205/3 193/128/3
f 213/130/3 66/206/3 191/131/3
f 62/133/3 63/207/3 67/134/3
f 188/136/3 61/208/3 204/137/3
f 215/139/7 212/209/7 49/140/7
f 199/142/8 197/210/8 156/143/8
f 55/145/9 64/211/9 50/146/9
f 57/148/10 201/212/10 165/149/10
f 218/151/2 203/213/2 168/152/2
f 59/154/1 56/214/1 42/155/1
f 194/157/2 65/215/2 51/158/2
f 58/160/2 60/216/2 46/161/2
