# Blender v2.79 (sub 0) OBJ File: ''
# www.blender.org
mtllib room.mtl
o Plane
v -17.052105 18.146149 -9.682430
v 24.192062 0.426023 0.000000
v 17.052103 0.426023 2.782698
v 17.052103 0.426023 2.782698
v 17.052103 0.426023 2.782698
v -17.052105 0.000002 -9.682433
v 17.052103 0.426023 2.782698
v 17.052103 0.426023 2.782698
v 24.192062 0.426022 4.174047
v 24.192062 0.426022 4.174047
v 17.052103 18.146143 22.672365
v 24.192062 0.426022 4.174047
v 17.052103 0.426023 1.391349
v 17.052103 0.426023 1.391349
v -17.052105 -0.000001 3.521147
v -17.052105 -0.000004 22.672361
v 17.052103 0.426023 1.391349
v -17.052105 -0.000001 5.281721
v 17.052103 0.426023 1.391349
v 17.052103 18.146147 5.281724
v 17.052103 18.146147 3.521150
v 17.052103 0.000002 -9.682433
v 17.052103 0.426023 1.391349
v 24.192062 1.836321 4.174047
v 17.052103 1.784554 -9.682433
v 17.052103 18.146147 -5.281718
v 17.052103 18.146149 -9.682430
v 24.192062 1.836321 4.174047
v 24.192062 1.836321 4.174047
v 24.192062 1.836321 4.174047
v 17.052103 7.184381 1.760575
v 17.052103 7.184381 1.760575
v 17.052103 7.184381 1.760575
v 17.052103 7.184381 1.760575
v 17.052103 7.184381 1.760575
v 17.052103 4.853194 3.521148
v 17.052103 4.853194 3.521148
v 17.052103 4.853194 3.521148
v 17.052103 4.853194 3.521148
v 17.052103 4.853194 3.521148
v 17.052103 4.853194 3.521148
v 17.052103 1.836321 4.174047
v 17.052103 1.836321 4.174047
v 17.052103 1.836321 4.174047
v 17.052103 18.146147 -3.521144
v 17.052103 1.836321 4.174047
v 17.052103 1.836321 4.174047
v 17.052103 4.261414 2.782699
v 17.052103 18.146147 -1.760571
v 17.052103 4.261414 2.782699
v 17.052103 18.146147 0.000003
v 17.052103 7.936954 0.000001
v 17.052103 18.146147 1.760577
v 17.052103 4.261414 2.782699
v 17.052103 4.261414 2.782699
v 17.052103 6.103707 1.391350
v 17.052103 6.103707 1.391350
v -17.052105 0.000001 -3.521147
v 17.052103 6.103707 1.391350
v -17.052105 0.000001 -5.281721
v -17.052105 0.000000 -1.760574
v 17.052103 6.103707 1.391350
v 17.052103 6.103707 1.391350
v 24.192062 4.261414 2.782699
v 24.192062 4.261414 2.782699
v 24.192062 4.261414 2.782699
v -17.052105 -0.000000 1.760574
v 24.192062 4.261414 2.782699
v -17.052105 0.000000 0.000000
v 24.192062 4.261414 2.782699
v 24.192062 0.426023 2.782698
v 24.192062 0.426023 2.782698
v 24.192062 0.426023 2.782698
v 24.192062 0.426023 2.782698
v 24.192062 0.426023 2.782698
v 24.192062 6.103707 1.391350
v 24.192062 6.103707 1.391350
v 24.192062 6.103707 1.391350
v 24.192062 6.103707 1.391350
v 24.192062 6.103707 1.391350
v 24.192062 0.426023 1.391349
v 24.192062 0.426023 1.391349
v 24.192062 0.426023 1.391349
v 24.192062 0.426023 1.391349
v 24.192062 0.426023 1.391349
v -17.052105 -0.000001 5.281721
v -17.052105 -0.000001 5.281721
v -17.052105 -0.000004 22.672361
v 17.052103 1.784551 5.281722
v 17.052103 1.784551 5.281722
v 17.052103 1.784551 5.281722
v 17.052103 1.784551 5.281722
v 17.052103 1.784551 5.281722
v 17.052103 1.784551 5.281722
v 17.052103 7.184381 -1.760573
v 17.052103 0.426023 0.000000
v 17.052103 7.184381 -1.760573
v 17.052103 7.184381 -1.760573
v 17.052103 7.184381 -1.760573
v 17.052103 7.184381 -1.760573
v -17.052105 0.000001 -5.281721
v -17.052105 0.000001 -5.281721
v -17.052105 0.000001 -3.521147
v -17.052105 0.000001 -3.521147
v 24.192062 6.698453 0.000001
v 24.192062 6.698453 0.000001
v 24.192062 6.698453 0.000001
v 17.052103 -0.000001 5.281721
v 24.192062 6.698453 0.000001
v 17.052103 4.853195 -3.521146
v 17.052103 0.000000 -1.760574
v 17.052103 4.853194 3.521148
v 17.052103 1.836321 4.174047
v 17.052103 0.000000 -1.760574
v 17.052103 0.000000 -1.760574
v 17.052103 0.000000 -1.760574
v 17.052103 0.000000 -1.760574
v 17.052103 6.103707 1.391350
v -17.052105 0.000000 -1.760574
v 17.052103 7.184381 1.760575
v -17.052105 0.000000 -1.760574
v 17.052103 18.146149 -9.682430
v 24.192062 0.426023 -2.782698
v 24.192062 0.426023 -2.782698
v 24.192062 0.426023 1.391349
v 24.192062 0.426023 -2.782698
v 24.192062 4.261415 -2.782697
v 24.192062 0.426023 -2.782698
v 24.192062 0.426023 -2.782698
v 24.192062 4.261415 -2.782697
v 24.192062 4.261415 -2.782697
v 24.192062 4.261415 -2.782697
v 24.192062 4.261415 -2.782697
v 24.192062 0.426023 0.000000
v 24.192062 4.261415 -2.782697
v 17.052103 18.146147 3.521150
v 24.192062 0.426023 2.782698
v 17.052103 18.146147 3.521150
v 17.052103 18.146147 5.281724
v 17.052103 6.698453 0.000001
v 17.052103 6.103707 -1.391348
v 17.052103 18.146147 5.281724
v 17.052103 6.103707 -1.391348
v 17.052103 1.836323 -4.174047
v 17.052103 6.103707 -1.391348
v 17.052103 6.103707 -1.391348
v 17.052103 6.103707 -1.391348
v 17.052103 6.103707 -1.391348
v 17.052103 0.426022 4.174047
v 17.052103 6.698453 0.000001
v 17.052103 6.698453 0.000001
v 17.052103 6.698453 0.000001
v 17.052103 0.426023 -2.782698
v 17.052103 6.698453 0.000001
v 17.052103 6.698453 0.000001
v 17.052103 0.426024 -4.174047
v 17.052103 6.698453 0.000001
v 17.052103 4.261415 -2.782697
v 17.052103 4.261415 -2.782697
v 24.192062 0.426022 4.174047
v 17.052103 0.426023 2.782698
v 17.052103 4.261415 -2.782697
v 17.052103 4.261415 -2.782697
v 17.052103 0.000001 -5.281721
v 17.052103 4.853195 -3.521146
v 17.052103 1.784548 22.672361
v 17.052103 4.853195 -3.521146
v 17.052103 -0.000004 22.672361
v 17.052103 1.784551 5.281722
v 17.052103 4.853195 -3.521146
v 17.052103 4.853195 -3.521146
v -17.052105 1.784554 -9.682433
v 17.052103 4.853195 -3.521146
v 17.052103 4.853195 -3.521146
v 17.052103 1.784548 22.672361
v 17.052103 1.784548 22.672361
v 17.052103 1.784553 -5.281721
v 17.052103 18.146143 22.672365
v 17.052103 7.184381 -1.760573
v 17.052103 18.146147 0.000003
v 17.052103 18.146147 -1.760571
v 17.052103 0.000001 -3.521147
v 17.052103 0.000000 -1.760574
v 17.052103 0.000000 0.000000
v 17.052103 -0.000000 1.760574
v 17.052103 -0.000001 3.521147
v 17.052103 18.146147 -1.760571
v 17.052103 0.426023 -1.391349
v 17.052103 18.146147 -5.281718
v 17.052103 18.146147 -5.281718
v 17.052103 18.146147 -5.281718
v 17.052103 1.784554 -9.682433
v 24.192062 1.836321 4.174047
v 17.052103 1.784554 -9.682433
v 17.052103 1.784554 -9.682433
v 17.052103 0.426023 1.391349
v 17.052103 1.784554 -9.682433
v 17.052103 1.784554 -9.682433
v 17.052103 4.261415 -2.782697
v 17.052103 1.784554 -9.682433
v 17.052103 18.146147 1.760577
v 17.052103 4.261414 2.782699
v 24.192062 0.426024 -4.174047
v 24.192062 6.103707 1.391350
v 24.192062 0.426023 -2.782698
v 24.192062 0.426023 -1.391349
v 17.052103 18.146147 1.760577
v 24.192062 4.261414 2.782699
v 24.192062 6.698453 0.000001
v 17.052103 7.936954 0.000001
v 24.192062 6.103707 -1.391348
v 17.052103 7.936954 0.000001
v 17.052103 7.936954 0.000001
v 24.192062 1.836323 -4.174047
v 17.052103 7.936954 0.000001
v 17.052103 7.936954 0.000001
v 24.192062 0.426023 0.000000
v 24.192062 0.426023 0.000000
v 24.192062 0.426023 0.000000
v 24.192062 0.426023 0.000000
v 24.192062 0.426023 0.000000
v 17.052103 0.426023 0.000000
v 17.052103 0.426023 0.000000
v 17.052103 0.426023 0.000000
v 17.052103 0.426023 0.000000
v 17.052103 -0.000001 3.521147
v 17.052103 -0.000001 3.521147
v 17.052103 -0.000001 3.521147
v 17.052103 -0.000001 3.521147
v 17.052103 -0.000001 3.521147
v 17.052103 -0.000001 5.281721
v 17.052103 -0.000001 5.281721
v 17.052103 -0.000001 5.281721
v 17.052103 -0.000001 5.281721
v 17.052103 -0.000001 5.281721
v 17.052103 -0.000001 5.281721
v 17.052103 0.426022 4.174047
v 17.052103 0.426022 4.174047
v 17.052103 0.426022 4.174047
v 17.052103 0.426022 4.174047
v 17.052103 0.426022 4.174047
v 17.052103 0.426022 4.174047
v 17.052103 18.146147 -3.521144
v 17.052103 18.146147 -3.521144
v 17.052103 0.000002 -9.682433
v 17.052103 0.000002 -9.682433
v 17.052103 0.000002 -9.682433
v 17.052103 0.000002 -9.682433
v 17.052103 0.000001 -5.281721
v 17.052103 0.000001 -5.281721
v 17.052103 0.000001 -5.281721
v 17.052103 0.000001 -5.281721
v 17.052103 0.000001 -5.281721
v 17.052103 0.000001 -3.521147
v 17.052103 0.000001 -3.521147
v 17.052103 0.000001 -3.521147
v 17.052103 0.000001 -3.521147
v 17.052103 0.000001 -3.521147
v 24.192062 6.103707 -1.391348
v 24.192062 6.103707 -1.391348
v 24.192062 6.103707 -1.391348
v 24.192062 6.103707 -1.391348
v 24.192062 6.103707 -1.391348
v 17.052103 0.000000 0.000000
v 17.052103 0.000000 0.000000
v 17.052103 0.000000 0.000000
v 17.052103 0.000000 0.000000
v 17.052103 0.000000 0.000000
v 17.052103 0.000000 0.000000
v 17.052103 0.426023 -2.782698
v 17.052103 0.426023 -2.782698
v 17.052103 0.426023 -2.782698
v 17.052103 0.426023 -2.782698
v 17.052103 0.426023 -2.782698
v -17.052105 0.000000 0.000000
v -17.052105 0.000000 0.000000
v 17.052103 0.426023 -1.391349
v 17.052103 0.426023 -1.391349
v 17.052103 0.426023 -1.391349
v 17.052103 0.426023 -1.391349
v 17.052103 0.426023 -1.391349
v 24.192062 1.836323 -4.174047
v 24.192062 1.836323 -4.174047
v 24.192062 1.836323 -4.174047
v 24.192062 1.836323 -4.174047
v -17.052105 -0.000000 1.760574
v -17.052105 -0.000000 1.760574
v 17.052103 -0.000000 1.760574
v 17.052103 -0.000000 1.760574
v 17.052103 -0.000000 1.760574
v 17.052103 -0.000000 1.760574
v 17.052103 -0.000000 1.760574
v 17.052103 0.426024 -4.174047
v 17.052103 0.426024 -4.174047
v 17.052103 0.426024 -4.174047
v 17.052103 0.426024 -4.174047
v 17.052103 0.426024 -4.174047
v 17.052103 0.426024 -4.174047
v 24.192062 0.426024 -4.174047
v 24.192062 0.426024 -4.174047
v 24.192062 0.426024 -4.174047
v 24.192062 0.426023 -1.391349
v 24.192062 0.426023 -1.391349
v 24.192062 0.426023 -1.391349
v 24.192062 0.426023 -1.391349
v 24.192062 0.426023 -1.391349
v 17.052103 -0.000004 22.672361
v 17.052103 1.836323 -4.174047
v 17.052103 1.836323 -4.174047
v 17.052103 1.836323 -4.174047
v 17.052103 1.836323 -4.174047
v 17.052103 1.836323 -4.174047
v 17.052103 1.784553 -5.281721
v 17.052103 1.784553 -5.281721
v 17.052103 1.784553 -5.281721
v 17.052103 1.784553 -5.281721
v 17.052103 1.784553 -5.281721
v 17.052103 1.784553 -5.281721
v -17.052105 18.146149 -9.682430
v -17.052105 0.000002 -9.682433
v -17.052105 0.000002 -9.682433
v -17.052105 1.784554 -9.682433
v -17.052105 -0.000001 3.521147
v -17.052105 -0.000001 3.521147
vt 0.929208 0.512372
vt 0.702259 0.070592
vt 0.929208 0.070592
vt -0.000032 0.576150
vt 0.583204 0.666146
vt -0.000032 0.666147
vt 0.583396 0.360121
vt 0.607573 0.004476
vt 0.607573 0.360121
vt 0.607573 0.360121
vt 0.829239 0.004476
vt 0.829239 0.360121
vt -0.000033 0.360124
vt 0.583204 0.396126
vt -0.000032 0.396128
vt -0.000033 0.004478
vt 0.583204 0.360122
vt -0.000033 0.360124
vt 0.649147 0.396126
vt 0.829239 0.360121
vt 0.829239 0.396126
vt 0.583396 0.666144
vt 0.607573 0.576148
vt 0.607573 0.666144
vt 0.607573 0.666144
vt 0.829239 0.576148
vt 0.829239 0.666144
vt 0.583204 0.698826
vt -0.000032 0.666147
vt 0.583204 0.666146
vt 0.589158 0.553502
vt 0.607563 0.576154
vt 0.583386 0.576154
vt 0.589158 0.439687
vt 0.583386 0.468141
vt 0.583386 0.432137
vt 0.680719 0.504145
vt 0.674136 0.468141
vt 0.690915 0.468141
vt 0.583386 0.468141
vt 0.589158 0.496595
vt 0.583386 0.504146
vt 0.829239 0.576148
vt 0.649147 0.540144
vt 0.829239 0.540144
vt 0.829239 0.540144
vt 0.680730 0.504139
vt 0.829239 0.504139
vt 0.829239 0.504139
vt 0.690925 0.468135
vt 0.829239 0.468135
vt 0.690925 0.468135
vt 0.829239 0.432130
vt 0.829239 0.468135
vt 0.680730 0.432130
vt 0.829239 0.396126
vt 0.829239 0.432130
vt -0.000032 0.540146
vt 0.583204 0.576150
vt -0.000032 0.576150
vt -0.000032 0.504142
vt 0.583204 0.540145
vt -0.000032 0.540146
vt -0.000032 0.468137
vt 0.583204 0.504140
vt -0.000032 0.504142
vt -0.000032 0.432133
vt 0.583204 0.468136
vt -0.000032 0.468137
vt -0.000032 0.396128
vt 0.583204 0.432131
vt -0.000032 0.432133
vt 0.674136 0.468141
vt 0.680719 0.432137
vt 0.690915 0.468141
vt 0.583386 0.504146
vt 0.589158 0.525048
vt 0.583386 0.540150
vt 0.600851 0.811457
vt 0.624309 0.932305
vt 0.600851 0.932305
vt 0.740691 0.811457
vt 0.762599 0.932304
vt 0.740692 0.932304
vt 0.624309 0.811457
vt 0.658290 0.932305
vt 0.624309 0.932305
vt 0.762599 0.811457
vt 0.784507 0.932304
vt 0.762599 0.932304
vt 0.658290 0.811457
vt 0.698899 0.932305
vt 0.658290 0.932305
vt 0.784507 0.811457
vt 0.806415 0.932304
vt 0.784507 0.932304
vt 0.649137 0.540150
vt 0.666078 0.496595
vt 0.680719 0.504145
vt 0.589158 0.411234
vt 0.583386 0.432137
vt 0.583386 0.396132
vt 0.589158 0.382780
vt 0.583386 0.396132
vt 0.583386 0.360128
vt 0.607563 0.360128
vt 0.589158 0.382780
vt 0.583386 0.360128
vt 0.608264 0.553502
vt 0.649137 0.540150
vt 0.607563 0.576154
vt 0.649137 0.396132
vt 0.608264 0.382780
vt 0.607563 0.360128
vt 0.583386 0.540150
vt 0.589158 0.553502
vt 0.583386 0.576154
vt 0.666078 0.439687
vt 0.649137 0.396132
vt 0.680719 0.432137
vt 0.608266 0.553492
vt 0.589160 0.525039
vt 0.641121 0.525039
vt 0.641121 0.411224
vt 0.589160 0.439678
vt 0.589160 0.411224
vt 0.641121 0.525039
vt 0.589160 0.496585
vt 0.666080 0.496585
vt 0.666080 0.496585
vt 0.589160 0.468132
vt 0.674138 0.468132
vt 0.666080 0.439678
vt 0.589160 0.468132
vt 0.589160 0.439678
vt 0.608266 0.382771
vt 0.589160 0.411224
vt 0.589160 0.382771
vt 0.944706 0.811457
vt 0.968164 0.932304
vt 0.944706 0.932304
vt 0.870116 0.811457
vt 0.910725 0.932304
vt 0.870116 0.932304
vt 0.910725 0.811457
vt 0.944706 0.932304
vt 0.910725 0.932304
vt 0.698899 0.811457
vt 0.718784 0.932305
vt 0.698899 0.932305
vt 0.828323 0.811457
vt 0.850231 0.932304
vt 0.828323 0.932304
vt 0.850231 0.811457
vt 0.870116 0.932304
vt 0.850231 0.932304
vt 0.806415 0.811457
vt 0.828323 0.932304
vt 0.806415 0.932304
vt 0.718783 0.811457
vt 0.740692 0.932304
vt 0.718784 0.932305
vt 0.929208 0.512372
vt 0.702258 0.512372
vt 0.702259 0.070592
vt -0.000032 0.576150
vt 0.583204 0.576150
vt 0.583204 0.666146
vt 0.583396 0.360121
vt 0.583396 0.004476
vt 0.607573 0.004476
vt 0.607573 0.360121
vt 0.607573 0.004476
vt 0.829239 0.004476
vt -0.000033 0.360124
vt 0.583204 0.360122
vt 0.583204 0.396126
vt -0.000033 0.004478
vt 0.583203 0.004476
vt 0.583204 0.360122
vt 0.649147 0.396126
vt 0.607573 0.360121
vt 0.829239 0.360121
vt 0.583396 0.666144
vt 0.583396 0.576148
vt 0.607573 0.576148
vt 0.607573 0.666144
vt 0.607573 0.576148
vt 0.829239 0.576148
vt 0.583204 0.698826
vt -0.000032 0.698825
vt -0.000032 0.666147
vt 0.589158 0.553502
vt 0.608264 0.553502
vt 0.607563 0.576154
vt 0.589158 0.439687
vt 0.589158 0.468141
vt 0.583386 0.468141
vt 0.680719 0.504145
vt 0.666078 0.496595
vt 0.674136 0.468141
vt 0.583386 0.468141
vt 0.589158 0.468141
vt 0.589158 0.496595
vt 0.829239 0.576148
vt 0.607573 0.576148
vt 0.649147 0.540144
vt 0.829239 0.540144
vt 0.649147 0.540144
vt 0.680730 0.504139
vt 0.829239 0.504139
vt 0.680730 0.504139
vt 0.690925 0.468135
vt 0.690925 0.468135
vt 0.680730 0.432130
vt 0.829239 0.432130
vt 0.680730 0.432130
vt 0.649147 0.396126
vt 0.829239 0.396126
vt -0.000032 0.540146
vt 0.583204 0.540145
vt 0.583204 0.576150
vt -0.000032 0.504142
vt 0.583204 0.504140
vt 0.583204 0.540145
vt -0.000032 0.468137
vt 0.583204 0.468136
vt 0.583204 0.504140
vt -0.000032 0.432133
vt 0.583204 0.432131
vt 0.583204 0.468136
vt -0.000032 0.396128
vt 0.583204 0.396126
vt 0.583204 0.432131
vt 0.674136 0.468141
vt 0.666078 0.439687
vt 0.680719 0.432137
vt 0.583386 0.504146
vt 0.589158 0.496595
vt 0.589158 0.525048
vt 0.600851 0.811457
vt 0.624309 0.811457
vt 0.624309 0.932305
vt 0.740691 0.811457
vt 0.762599 0.811457
vt 0.762599 0.932304
vt 0.624309 0.811457
vt 0.658290 0.811457
vt 0.658290 0.932305
vt 0.762599 0.811457
vt 0.784507 0.811457
vt 0.784507 0.932304
vt 0.658290 0.811457
vt 0.698899 0.811457
vt 0.698899 0.932305
vt 0.784507 0.811457
vt 0.806415 0.811457
vt 0.806415 0.932304
vt 0.649137 0.540150
vt 0.641119 0.525048
vt 0.666078 0.496595
vt 0.589158 0.411234
vt 0.589158 0.439687
vt 0.583386 0.432137
vt 0.589158 0.382780
vt 0.589158 0.411234
vt 0.583386 0.396132
vt 0.607563 0.360128
vt 0.608264 0.382780
vt 0.589158 0.382780
vt 0.608264 0.553502
vt 0.641119 0.525048
vt 0.649137 0.540150
vt 0.649137 0.396132
vt 0.641119 0.411234
vt 0.608264 0.382780
vt 0.583386 0.540150
vt 0.589158 0.525048
vt 0.589158 0.553502
vt 0.666078 0.439687
vt 0.641119 0.411234
vt 0.649137 0.396132
vt 0.608266 0.553492
vt 0.589160 0.553492
vt 0.589160 0.525039
vt 0.641121 0.411224
vt 0.666080 0.439678
vt 0.589160 0.439678
vt 0.641121 0.525039
vt 0.589160 0.525039
vt 0.589160 0.496585
vt 0.666080 0.496585
vt 0.589160 0.496585
vt 0.589160 0.468132
vt 0.666080 0.439678
vt 0.674138 0.468132
vt 0.589160 0.468132
vt 0.608266 0.382771
vt 0.641121 0.411224
vt 0.589160 0.411224
vt 0.944706 0.811457
vt 0.968164 0.811457
vt 0.968164 0.932304
vt 0.870116 0.811457
vt 0.910725 0.811457
vt 0.910725 0.932304
vt 0.910725 0.811457
vt 0.944706 0.811457
vt 0.944706 0.932304
vt 0.698899 0.811457
vt 0.718783 0.811457
vt 0.718784 0.932305
vt 0.828323 0.811457
vt 0.850231 0.811457
vt 0.850231 0.932304
vt 0.850231 0.811457
vt 0.870116 0.811457
vt 0.870116 0.932304
vt 0.806415 0.811457
vt 0.828323 0.811457
vt 0.828323 0.932304
vt 0.718783 0.811457
vt 0.740691 0.811457
vt 0.740692 0.932304
vn 0.0000 -0.0000 1.0000
vn 0.0000 1.0000 0.0000
vn -1.0000 0.0000 0.0000
vn 0.0000 -0.9195 -0.3931
vn 0.0000 -0.6027 -0.7980
vn 0.0000 -0.4976 -0.8674
vn 0.0000 -0.9195 0.3931
vn 0.0000 -0.4976 0.8674
vn 0.0000 -0.6027 0.7980
vn 0.0000 0.0000 -1.0000
usemtl Material.001
s 1
f 319/1/1 195/2/1 27/3/1
f 101/4/2 245/5/2 320/6/2
f 234/7/3 166/8/3 92/9/3
f 94/10/3 11/11/3 139/12/3
f 86/13/2 226/14/2 324/15/2
f 88/16/2 232/17/2 87/18/2
f 38/19/3 142/20/3 138/21/3
f 246/22/3 314/23/3 194/24/3
f 200/25/3 191/26/3 122/27/3
f 197/28/1 321/29/1 248/30/1
f 296/31/3 315/32/3 251/33/3
f 23/34/3 264/35/3 289/36/3
f 98/37/3 152/38/3 215/39/3
f 267/40/3 277/41/3 116/42/3
f 190/43/3 170/44/3 244/45/3
f 243/46/3 100/47/3 181/48/3
f 187/49/3 213/50/3 180/51/3
f 216/52/3 207/53/3 51/54/3
f 33/55/3 136/56/3 201/57/3
f 104/58/2 249/59/2 102/60/2
f 119/61/2 254/62/2 103/63/2
f 276/64/2 117/65/2 121/66/2
f 287/67/2 266/68/2 275/69/2
f 323/70/2 288/71/2 286/72/2
f 154/73/3 34/74/3 212/75/3
f 115/76/3 270/77/3 255/78/3
f 109/79/4 59/80/4 155/81/4
f 74/82/2 17/83/2 7/84/2
f 78/85/5 55/86/5 63/87/5
f 84/88/2 222/89/2 19/90/2
f 66/91/6 44/92/6 50/93/6
f 219/94/2 279/95/2 224/96/2
f 171/97/3 146/98/3 99/99/3
f 5/100/3 290/101/3 227/102/3
f 238/103/3 228/104/3 231/105/3
f 91/106/3 240/107/3 235/108/3
f 308/109/3 173/110/3 313/111/3
f 41/112/3 47/113/3 93/114/3
f 256/115/3 295/116/3 250/117/3
f 62/118/3 39/119/3 35/120/3
f 283/121/3 129/122/3 135/123/3
f 70/124/3 83/125/3 75/126/3
f 132/127/3 304/128/3 260/129/3
f 259/130/3 218/131/3 107/132/3
f 80/133/3 2/134/3 85/135/3
f 28/136/3 73/137/3 10/138/3
f 261/139/7 157/140/7 148/141/7
f 284/142/8 159/143/8 310/144/8
f 133/145/9 147/146/9 162/147/9
f 30/148/10 239/149/10 46/150/10
f 124/151/2 294/152/2 271/153/2
f 299/154/1 309/155/1 293/156/1
f 303/157/2 272/158/2 278/159/2
f 12/160/2 8/161/2 237/162/2
f 1/163/1 322/164/1 198/165/1
f 60/166/2 252/167/2 247/168/2
f 233/169/3 168/170/3 175/171/3
f 90/172/3 176/173/3 178/174/3
f 18/175/2 108/176/2 229/177/2
f 16/178/2 307/179/2 236/180/2
f 37/181/3 89/182/3 20/183/3
f 22/184/3 164/185/3 318/186/3
f 192/187/3 316/188/3 189/189/3
f 25/190/1 172/191/1 6/192/1
f 156/193/3 144/194/3 177/195/3
f 196/196/3 223/197/3 265/198/3
f 179/199/3 143/200/3 151/201/3
f 269/202/3 96/203/3 188/204/3
f 26/205/3 317/206/3 167/207/3
f 45/208/3 110/209/3 95/210/3
f 49/211/3 97/212/3 52/213/3
f 210/214/3 32/215/3 53/216/3
f 120/217/3 36/218/3 21/219/3
f 58/220/2 258/221/2 253/222/2
f 61/223/2 114/224/2 257/225/2
f 69/226/2 268/227/2 183/228/2
f 67/229/2 185/230/2 184/231/2
f 15/232/2 186/233/2 292/234/2
f 140/235/3 57/236/3 31/237/3
f 111/238/3 280/239/3 274/240/3
f 106/241/4 77/242/4 56/243/4
f 72/244/2 125/245/2 14/246/2
f 79/247/5 68/248/5 48/249/5
f 81/250/2 221/251/2 225/252/2
f 65/253/6 29/254/6 42/255/6
f 217/256/2 305/257/2 281/258/2
f 174/259/3 163/260/3 145/261/3
f 3/262/3 13/263/3 291/264/3
f 149/265/3 161/266/3 230/267/3
f 169/268/3 43/269/3 241/270/3
f 311/271/3 158/272/3 165/273/3
f 40/274/3 54/275/3 113/276/3
f 182/277/3 153/278/3 298/279/3
f 118/280/3 202/281/3 112/282/3
f 282/283/3 300/284/3 126/285/3
f 64/286/3 204/287/3 82/288/3
f 127/289/3 128/290/3 302/291/3
f 211/292/3 206/293/3 134/294/3
f 76/295/3 209/296/3 220/297/3
f 24/298/3 208/299/3 71/300/3
f 262/301/7 105/302/7 150/303/7
f 285/304/8 131/305/8 199/306/8
f 130/307/9 263/308/9 141/309/9
f 193/310/10 160/311/10 242/312/10
f 205/313/2 301/314/2 297/315/2
f 203/316/1 214/317/1 312/318/1
f 306/319/2 123/320/2 273/321/2
f 9/322/2 137/323/2 4/324/2
