# Blender v2.79 (sub 0) OBJ File: 'xyzArrows.blend'
# www.blender.org
mtllib xyzArrows.mtl
o Cylinder
v 0.035355 1.040000 0.035355
v -0.000000 0.100000 -1.040000
v 0.100000 -0.000000 -1.040000
v -0.035355 -0.035355 0.000000
v -0.035355 0.035355 -1.040000
v 0.050000 0.000000 0.000000
v 0.035355 -0.035355 -1.040000
v 0.035355 -0.035355 0.000000
v -0.000000 1.040000 0.100000
v -0.100000 1.040000 -0.000000
v 0.000000 0.035355 0.035355
v 1.040000 0.035355 0.035355
v 0.000000 0.035355 -0.035355
v 1.040000 -0.000000 -0.100000
v 1.040000 -0.000000 0.100000
v 0.035355 0.000000 -0.035355
v 0.035355 1.040000 -0.035355
v 0.000000 1.040000 -0.050000
v 0.050000 1.040000 0.000000
v 0.035355 0.000000 0.035355
v -0.000000 0.000000 0.050000
v -0.000000 1.040000 0.050000
v -0.035355 0.000000 0.035355
v -0.035355 1.040000 0.035355
v -0.050000 0.000000 -0.000000
v -0.050000 1.040000 -0.000000
v -0.035355 0.000000 -0.035355
v -0.035355 1.040000 -0.035355
v -0.035355 -0.035355 -1.040000
v -0.070711 -0.070711 -1.040000
v -0.000000 0.050000 -1.040000
v -0.050000 0.000000 -1.040000
v -0.100000 -0.000000 -1.040000
v 0.050000 0.000000 -1.040000
v 0.000000 -0.050000 -1.040000
v 0.000000 -0.100000 -1.040000
v 0.070711 -0.070711 -1.040000
v 0.000000 -0.000000 -1.500000
v 0.070711 0.070711 -1.040000
v -0.070711 0.070711 -1.040000
v 0.035355 0.035355 -1.040000
v 0.000000 -0.050000 0.000000
v -0.035355 0.035355 0.000000
v -0.000000 0.050000 -0.000000
v 0.035355 0.035355 0.000000
v 0.000000 1.040000 -0.100000
v 0.070711 1.040000 -0.070711
v 0.000000 1.500000 0.000000
v 0.100000 1.040000 0.000000
v 0.070711 1.040000 0.070711
v -0.070711 1.040000 0.070711
v -0.070711 1.040000 -0.070711
v 0.000000 0.000000 -0.050000
v 0.000000 -0.035355 -0.035355
v 1.040000 -0.035355 -0.035355
v 1.040000 0.000000 -0.050000
v 1.040000 -0.050000 0.000000
v 0.000000 -0.035355 0.035355
v 1.040000 -0.035355 0.035355
v 1.040000 0.000000 0.050000
v 1.040000 0.050000 -0.000000
v 1.040000 0.035355 -0.035355
v 1.040000 -0.070711 -0.070711
v 1.500000 -0.000000 0.000000
v 1.040000 -0.100000 0.000000
v 1.040000 -0.070711 0.070711
v 1.040000 0.100000 -0.000000
v 1.040000 0.070711 0.070711
v 1.040000 0.070711 -0.070711
vt 0.431145 0.445252
vt 0.431145 0.376792
vt 0.433404 0.376737
vt 0.433404 0.445197
vt 0.394254 0.376777
vt 0.394254 0.445220
vt 0.391755 0.445179
vt 0.391755 0.376737
vt 0.389352 0.445230
vt 0.389352 0.376787
vt 0.423657 0.376747
vt 0.423657 0.445260
vt 0.421130 0.445250
vt 0.421130 0.376737
vt 0.418765 0.445265
vt 0.418765 0.376752
vt 0.379540 0.376761
vt 0.379540 0.445261
vt 0.377111 0.445236
vt 0.377111 0.376737
vt 0.425165 0.449565
vt 0.423290 0.451350
vt 0.420639 0.451354
vt 0.418765 0.449575
vt 0.418765 0.447054
vt 0.420639 0.445269
vt 0.423290 0.445265
vt 0.425165 0.447045
vt 0.374634 0.445258
vt 0.374634 0.376758
vt 0.428560 0.445228
vt 0.428560 0.376768
vt 0.433085 0.463515
vt 0.430434 0.463513
vt 0.428560 0.461730
vt 0.428560 0.459208
vt 0.430434 0.457427
vt 0.433085 0.457428
vt 0.434960 0.459212
vt 0.434960 0.461733
vt 0.415035 0.598627
vt 0.413605 0.595412
vt 0.419323 0.595420
vt 0.417894 0.598631
vt 0.465420 0.554036
vt 0.475888 0.523056
vt 0.470698 0.554851
vt 0.460048 0.556358
vt 0.465402 0.588267
vt 0.454930 0.557157
vt 0.465402 0.555722
vt 0.449787 0.556377
vt 0.454930 0.588316
vt 0.444473 0.557252
vt 0.454930 0.555722
vt 0.475888 0.555555
vt 0.470744 0.620023
vt 0.475842 0.588267
vt 0.475842 0.620754
vt 0.465398 0.619190
vt 0.423366 0.599189
vt 0.419915 0.600515
vt 0.418077 0.595399
vt 0.418077 0.523060
vt 0.420787 0.523074
vt 0.420787 0.595412
vt 0.391606 0.523079
vt 0.391606 0.595405
vt 0.388931 0.595382
vt 0.388931 0.523056
vt 0.404792 0.523056
vt 0.404792 0.595322
vt 0.402198 0.595376
vt 0.402198 0.523109
vt 0.407491 0.523098
vt 0.407491 0.595365
vt 0.410085 0.595376
vt 0.410085 0.523109
vt 0.412784 0.523067
vt 0.412784 0.595333
vt 0.407491 0.595322
vt 0.407491 0.523056
vt 0.381011 0.610139
vt 0.383012 0.608264
vt 0.385841 0.608274
vt 0.387841 0.610163
vt 0.387841 0.612824
vt 0.385841 0.614699
vt 0.383012 0.614689
vt 0.381011 0.612800
vt 0.423366 0.523056
vt 0.423366 0.595394
vt 0.386309 0.595408
vt 0.386309 0.523082
vt 0.448174 0.608253
vt 0.451033 0.608257
vt 0.453054 0.610142
vt 0.453054 0.612804
vt 0.451033 0.614683
vt 0.448174 0.614679
vt 0.446152 0.612795
vt 0.446152 0.610133
vt 0.467580 0.407009
vt 0.472051 0.376737
vt 0.472051 0.407643
vt 0.462485 0.407674
vt 0.462485 0.438498
vt 0.457527 0.408277
vt 0.452787 0.409034
vt 0.472141 0.438498
vt 0.472141 0.469169
vt 0.467135 0.439146
vt 0.462454 0.439802
vt 0.452782 0.438498
vt 0.452782 0.469277
vt 0.447976 0.439164
vt 0.443088 0.439936
vt 0.462497 0.406113
vt 0.379708 0.448305
vt 0.378383 0.445261
vt 0.383684 0.445263
vt 0.382359 0.448306
vt 0.387433 0.448831
vt 0.384233 0.450090
vt 0.387433 0.453873
vt 0.384233 0.452611
vt 0.383684 0.457437
vt 0.382359 0.454393
vt 0.378383 0.457434
vt 0.379708 0.454391
vt 0.374634 0.453867
vt 0.377834 0.452608
vt 0.374634 0.448824
vt 0.377834 0.450086
vt 0.423366 0.604513
vt 0.419915 0.603177
vt 0.419323 0.608271
vt 0.417894 0.605057
vt 0.413605 0.608264
vt 0.415035 0.605053
vt 0.409562 0.604495
vt 0.413013 0.603168
vt 0.409562 0.599171
vt 0.413013 0.600506
vt 0.563926 0.590021
vt 0.563926 0.524621
vt 0.566255 0.524785
vt 0.566255 0.590185
vt 0.523601 0.590808
vt 0.523601 0.524675
vt 0.525988 0.524621
vt 0.525988 0.590755
vt 0.528345 0.524679
vt 0.528345 0.590812
vt 0.556784 0.524698
vt 0.556784 0.590741
vt 0.554425 0.590665
vt 0.554425 0.524621
vt 0.552040 0.590736
vt 0.552040 0.524693
vt 0.542564 0.590799
vt 0.542564 0.524621
vt 0.544887 0.524670
vt 0.544887 0.590848
vt 0.561160 0.596769
vt 0.562972 0.598490
vt 0.562972 0.600927
vt 0.561160 0.602653
vt 0.558597 0.602656
vt 0.556784 0.600936
vt 0.556784 0.598499
vt 0.558597 0.596773
vt 0.547303 0.524631
vt 0.547303 0.590809
vt 0.561514 0.590155
vt 0.561514 0.524755
vt 0.572756 0.584383
vt 0.575322 0.584383
vt 0.577136 0.586106
vt 0.577135 0.588544
vt 0.575320 0.590268
vt 0.572753 0.590268
vt 0.570939 0.588544
vt 0.570940 0.586106
vt 0.533166 0.618755
vt 0.532686 0.590848
vt 0.537827 0.619054
vt 0.599058 0.583518
vt 0.603700 0.554535
vt 0.603832 0.583406
vt 0.608546 0.583518
vt 0.580318 0.524621
vt 0.580318 0.554535
vt 0.575631 0.525154
vt 0.570939 0.525986
vt 0.580318 0.553110
vt 0.589696 0.524621
vt 0.584902 0.553842
vt 0.589696 0.554425
vt 0.528345 0.619054
vt 0.573735 0.599697
vt 0.575018 0.602639
vt 0.569885 0.602641
vt 0.571168 0.599698
vt 0.566255 0.599195
vt 0.569353 0.597975
vt 0.566255 0.594320
vt 0.569353 0.595537
vt 0.569885 0.590871
vt 0.571168 0.593813
vt 0.575018 0.590869
vt 0.573735 0.593812
vt 0.578648 0.594315
vt 0.575550 0.595535
vt 0.578648 0.599190
vt 0.575550 0.597972
vn 0.3827 -0.0000 -0.9239
vn 0.9239 -0.0000 -0.3827
vn 0.9239 0.0000 0.3827
vn 0.3827 0.0000 0.9239
vn -0.3827 0.0000 0.9239
vn -0.9239 0.0000 0.3827
vn 0.0000 1.0000 0.0000
vn -0.9239 0.0000 -0.3827
vn -0.3827 -0.0000 -0.9239
vn 0.0000 -1.0000 0.0000
vn 0.0000 0.0000 1.0000
vn -0.9058 0.3752 -0.1969
vn -0.3752 0.9058 -0.1969
vn 0.3752 0.9058 -0.1969
vn 0.9058 0.3752 -0.1969
vn 0.9058 -0.3752 -0.1969
vn -0.9058 -0.3752 -0.1969
vn 0.3752 -0.9058 -0.1969
vn -0.3752 -0.9058 -0.1969
vn -0.3827 -0.9239 0.0000
vn -0.9239 0.3827 -0.0000
vn -0.3827 0.9239 -0.0000
vn 0.3827 0.9239 -0.0000
vn 0.9239 0.3827 -0.0000
vn 0.9239 -0.3827 0.0000
vn -0.0000 0.0000 -1.0000
vn 0.3827 -0.9239 0.0000
vn -0.9239 -0.3827 -0.0000
vn 0.3752 0.1969 -0.9058
vn 0.9058 0.1969 -0.3752
vn 0.9058 0.1969 0.3752
vn 0.3752 0.1969 0.9058
vn -0.3752 0.1969 0.9058
vn -0.9058 0.1969 0.3752
vn -0.9058 0.1969 -0.3752
vn -0.3752 0.1969 -0.9058
vn 0.0000 -0.3827 -0.9239
vn -0.0000 -0.9239 -0.3827
vn -0.0000 -0.9239 0.3827
vn 0.0000 -0.3827 0.9239
vn 0.0000 0.3827 0.9239
vn 0.0000 0.9239 0.3827
vn 1.0000 0.0000 0.0000
vn 0.0000 0.9239 -0.3827
vn 0.0000 0.3827 -0.9239
vn -1.0000 -0.0000 -0.0000
vn 0.1969 -0.3752 -0.9058
vn 0.1969 -0.9058 -0.3752
vn 0.1969 -0.9058 0.3752
vn 0.1969 -0.3752 0.9058
vn 0.1969 0.3752 0.9058
vn 0.1969 0.9058 0.3752
vn 0.1969 0.9058 -0.3752
vn 0.1969 0.3752 -0.9058
usemtl Material
s off
f 53/1/1 18/2/1 17/3/1 16/4/1
f 16/5/2 17/6/2 19/7/2 6/8/2
f 6/8/3 19/7/3 1/9/3 20/10/3
f 20/11/4 1/12/4 22/13/4 21/14/4
f 21/14/5 22/13/5 24/15/5 23/16/5
f 23/17/6 24/18/6 26/19/6 25/20/6
f 17/21/7 18/22/7 28/23/7 26/24/7 24/25/7 22/26/7 1/27/7 19/28/7
f 25/20/8 26/19/8 28/29/8 27/30/8
f 27/31/9 28/32/9 18/2/9 53/1/9
f 53/33/10 16/34/10 6/35/10 20/36/10 21/37/10 23/38/10 25/39/10 27/40/10
f 35/41/11 36/42/11 37/43/11 7/44/11
f 40/45/12 38/46/12 33/47/12
f 2/48/13 38/49/13 40/50/13
f 39/51/14 38/49/14 2/48/14
f 3/52/15 38/53/15 39/54/15
f 37/55/16 38/53/16 3/52/16
f 33/47/17 38/46/17 30/56/17
f 36/57/18 38/58/18 37/59/18
f 30/60/19 38/58/19 36/57/19
f 3/61/11 34/62/11 7/44/11 37/43/11
f 4/63/20 29/64/20 35/65/20 42/66/20
f 43/67/21 5/68/21 32/69/21 25/70/21
f 44/71/22 31/72/22 5/73/22 43/74/22
f 45/75/23 41/76/23 31/72/23 44/71/23
f 6/77/24 34/78/24 41/79/24 45/80/24
f 8/81/25 7/82/25 34/78/25 6/77/25
f 7/83/26 35/84/26 29/85/26 32/86/26 5/87/26 31/88/26 41/89/26 34/90/26
f 42/66/27 35/65/27 7/91/27 8/92/27
f 25/70/28 32/69/28 29/93/28 4/94/28
f 42/95/11 8/96/11 6/97/11 45/98/11 44/99/11 43/100/11 25/101/11 4/102/11
f 46/103/29 48/104/29 47/105/29
f 47/106/30 48/107/30 49/108/30
f 49/108/31 48/107/31 50/109/31
f 50/110/32 48/111/32 9/112/32
f 9/112/33 48/111/33 51/113/33
f 51/114/34 48/115/34 10/116/34
f 10/116/35 48/115/35 52/117/35
f 52/118/36 48/104/36 46/103/36
f 18/119/10 46/120/10 47/121/10 17/122/10
f 49/123/10 19/124/10 17/122/10 47/121/10
f 50/125/10 1/126/10 19/124/10 49/123/10
f 9/127/10 22/128/10 1/126/10 50/125/10
f 51/129/10 24/130/10 22/128/10 9/127/10
f 10/131/10 26/132/10 24/130/10 51/129/10
f 52/133/10 28/134/10 26/132/10 10/131/10
f 46/120/10 18/119/10 28/134/10 52/133/10
f 39/135/11 41/136/11 34/62/11 3/61/11
f 2/137/11 31/138/11 41/136/11 39/135/11
f 40/139/11 5/140/11 31/138/11 2/137/11
f 33/141/11 32/142/11 5/140/11 40/139/11
f 30/143/11 29/144/11 32/142/11 33/141/11
f 36/42/11 35/41/11 29/144/11 30/143/11
f 53/145/37 56/146/37 55/147/37 54/148/37
f 54/149/38 55/150/38 57/151/38 42/152/38
f 42/152/39 57/151/39 59/153/39 58/154/39
f 58/155/40 59/156/40 60/157/40 21/158/40
f 21/158/41 60/157/41 12/159/41 11/160/41
f 11/161/42 12/162/42 61/163/42 44/164/42
f 55/165/43 56/166/43 62/167/43 61/168/43 12/169/43 60/170/43 59/171/43 57/172/43
f 44/164/44 61/163/44 62/173/44 13/174/44
f 13/175/45 62/176/45 56/146/45 53/145/45
f 53/177/46 54/178/46 42/179/46 58/180/46 21/181/46 11/182/46 44/183/46 13/184/46
f 14/185/47 64/186/47 63/187/47
f 63/188/48 64/189/48 65/190/48
f 65/190/49 64/189/49 66/191/49
f 66/192/50 64/193/50 15/194/50
f 15/194/51 64/193/51 68/195/51
f 68/196/52 64/197/52 67/198/52
f 67/198/53 64/197/53 69/199/53
f 69/200/54 64/186/54 14/185/54
f 56/201/46 14/202/46 63/203/46 55/204/46
f 65/205/46 57/206/46 55/204/46 63/203/46
f 66/207/46 59/208/46 57/206/46 65/205/46
f 15/209/46 60/210/46 59/208/46 66/207/46
f 68/211/46 12/212/46 60/210/46 15/209/46
f 67/213/46 61/214/46 12/212/46 68/211/46
f 69/215/46 62/216/46 61/214/46 67/213/46
f 14/202/46 56/201/46 62/216/46 69/215/46
